<?xml version="1.0" encoding="UTF-8"?> <!-- Creator: CorelDRAW X7 --> <svg xmlns="http://www.w3.org/2000/svg" xmlns:xlink="http://www.w3.org/1999/xlink" xml:space="preserve" width="60.7322mm" height="60.7322mm" style="shape-rendering:geometricPrecision; text-rendering:geometricPrecision; image-rendering:optimizeQuality; fill-rule:evenodd; clip-rule:evenodd" viewBox="0 0 21516 21516"> <defs> <style type="text/css"> <![CDATA[ .fil0 {fill:gold} .fil1 {fill:black} ]]> </style> </defs> <g id="Слой_x0020_1"> <metadata id="CorelCorpID_0Corel-Layer"></metadata> <rect class="fil0" width="21516" height="21516"></rect> <g id="_1900956994784"> <path class="fil1" d="M15166 8647l-2960 440 -833 396 -670 36 -1518 415c-83,-292 -282,-525 -544,-675 -336,-192 -773,-252 -1213,-131 -789,216 -1281,926 -1100,1593 79,292 278,527 543,679 334,192 773,252 1213,132 191,-52 366,-134 519,-241 0,0 2,0 2,0 14,-11 25,-19 39,-30 915,-677 1546,-860 1904,-898 -39,358 -222,988 -899,1904 -11,10 -19,24 -30,35 0,2 0,2 0,5 -104,153 -189,328 -240,519 -118,440 -61,877 130,1213 154,265 388,465 684,544 8,5 18,5 30,8 16,363 139,959 666,1497 123,123 320,123 443,2 126,-120 128,-319 5,-442 -396,-404 -478,-844 -489,-1095 423,-151 789,-544 934,-1071 120,-440 60,-877 -131,-1213 -150,-262 -385,-462 -674,-541l415 -1521c322,-107 1347,-377 1347,-377 0,0 1898,-811 2275,-912 360,-219 152,-271 152,-271zm-7260 2237c-248,69 -510,44 -701,-65 -85,-47 -195,-134 -232,-276 -83,-301 206,-653 633,-768 251,-68 508,-46 702,66 85,46 194,133 232,275 82,301 -208,656 -634,768zm3166 1718c109,194 134,451 66,702 -117,426 -470,716 -771,634 -142,-38 -229,-148 -275,-229 -110,-194 -134,-456 -66,-705 115,-426 467,-716 767,-634 143,39 230,151 279,232z"></path> <path class="fil1" d="M11848 8467l388 -3051c0,0 -21,-73 -59,-80l-11 0c-35,6 -84,72 -143,290 -74,265 -954,2379 -954,2379 0,0 -262,907 -366,1216l670 -36 475 -718z"></path> </g> </g> </svg> 