<?xml version="1.0" encoding="UTF-8"?> <!-- Creator: CorelDRAW X7 --> <svg xmlns="http://www.w3.org/2000/svg" xmlns:xlink="http://www.w3.org/1999/xlink" xml:space="preserve" width="60.7322mm" height="60.7322mm" style="shape-rendering:geometricPrecision; text-rendering:geometricPrecision; image-rendering:optimizeQuality; fill-rule:evenodd; clip-rule:evenodd" viewBox="0 0 21516 21516"> <defs> <style type="text/css"> <![CDATA[ .fil1 {fill:#292525} .fil0 {fill:gold} ]]> </style> </defs> <g id="Слой_x0020_1"> <metadata id="CorelCorpID_0Corel-Layer"></metadata> <rect class="fil0" width="21516" height="21516"></rect> <g id="_1900959380400"> <path class="fil1" d="M10758 10534c495,0 898,402 898,897 0,417 -287,765 -673,866l0 256c0,124 -101,224 -225,224 -124,0 -224,-100 -224,-224l0 -256c-386,-101 -673,-449 -673,-866 0,-124 100,-224 224,-224 124,0 225,100 225,224 0,248 201,449 448,449 248,0 449,-201 449,-449 0,-247 -201,-448 -449,-448 -495,0 -897,-403 -897,-898 0,-417 287,-765 673,-865l0 -256c0,-124 100,-225 224,-225 124,0 225,101 225,225l0 256c386,100 673,448 673,865 0,124 -101,225 -225,225 -124,0 -224,-101 -224,-225 0,-247 -201,-448 -449,-448 -247,0 -448,201 -448,448 0,248 201,449 448,449zm0 -2243c-1360,0 -2467,1107 -2467,2467 0,1361 1107,2468 2467,2468 1361,0 2468,-1107 2468,-2468 0,-1360 -1107,-2467 -2468,-2467z"></path> <path class="fil1" d="M10758 13675c-1608,0 -2916,-1309 -2916,-2917 0,-1608 1308,-2916 2916,-2916 1608,0 2916,1308 2916,2916 0,1608 -1308,2917 -2916,2917zm0 -6745c-2103,0 -3828,1725 -3828,3828 0,2103 1725,3829 3828,3829 2103,0 3829,-1726 3829,-3829 0,-2103 -1726,-3828 -3829,-3828z"></path> </g> </g> </svg> 