<?xml version="1.0" encoding="UTF-8"?> <!-- Creator: CorelDRAW X7 --> <svg xmlns="http://www.w3.org/2000/svg" xmlns:xlink="http://www.w3.org/1999/xlink" xml:space="preserve" width="60.7322mm" height="60.7322mm" style="shape-rendering:geometricPrecision; text-rendering:geometricPrecision; image-rendering:optimizeQuality; fill-rule:evenodd; clip-rule:evenodd" viewBox="0 0 21516 21516"> <defs> <style type="text/css"> <![CDATA[ .fil0 {fill:gold} .fil1 {fill:black} ]]> </style> </defs> <g id="Слой_x0020_1"> <metadata id="CorelCorpID_0Corel-Layer"></metadata> <rect class="fil0" width="21516" height="21516"></rect> <g id="_1900959384112"> <path class="fil1" d="M12055 15611l20 -129 2 -940 -420 0 -1 634 67 435c29,185 -20,363 -121,503l574 0c-101,-140 -149,-318 -121,-503z"></path> <path class="fil1" d="M10025 14374c-89,-106 -127,-245 -103,-382l205 -1165 0 -1908 200 0 0 776 241 -1368 0 -3 1 -2c76,-387 416,-668 809,-670 -286,-182 -477,-503 -477,-867 0,-566 461,-1026 1027,-1026 48,0 95,3 141,10l-432 -337c-154,-119 -346,-187 -541,-189 -239,-3 -1313,0 -1655,0 -451,4 -857,272 -1035,685l-184 427 -349 -387c-25,14 -51,27 -77,38 -65,26 -133,39 -203,39 -81,0 -160,-18 -231,-51 -46,119 -133,219 -248,281l939 1041c187,207 527,153 639,-106l421 -977c23,-53 53,-99 95,-135 0,434 1,6283 0,6511 0,256 203,462 458,462 255,0 461,-206 461,-462l0 -144c-38,-25 -72,-55 -102,-91z"></path> <path class="fil1" d="M10534 5443c407,169 601,635 432,1042 -169,407 -635,601 -1042,432 -407,-169 -600,-635 -432,-1042 123,-296 402,-479 702,-492l71 0c90,4 181,24 269,60z"></path> <path class="fil1" d="M10444 14542l191 1237c32,206 209,353 410,354l6 0c21,0 41,-1 61,-5 228,-35 385,-248 350,-477l-172 -1109 -846 0z"></path> <path class="fil1" d="M12488 14542l-171 1109c-36,229 121,442 349,477 21,4 41,5 62,5l4 0c202,0 379,-148 411,-354l191 -1237 -846 0z"></path> <path class="fil1" d="M12952 10371c-54,-272 -292,-467 -569,-467l-1000 0c-276,0 -513,195 -567,467l-645 3665c-24,132 78,254 213,254l3080 0c136,0 239,-125 212,-259l-724 -3660zm-1246 949c94,11 170,73 203,156 34,-83 109,-145 204,-156 89,-11 170,24 223,85 78,89 220,81 280,-21 1,-1 2,-2 2,-3 22,38 34,81 34,127 0,233 -266,348 -507,317 -106,-13 -198,-72 -236,-161 -37,89 -129,148 -235,161 -241,31 -508,-84 -508,-317 0,-46 13,-89 34,-127 1,1 2,2 2,3 61,102 203,110 281,21 52,-61 134,-96 223,-85z"></path> <path class="fil1" d="M12702 8785c0,428 -346,775 -774,775 -428,0 -775,-347 -775,-775 0,-428 347,-774 775,-774 428,0 774,346 774,774z"></path> <path class="fil1" d="M7189 7780l-12 -249 163 189c120,139 332,155 472,33 140,-121 155,-332 34,-472 -121,-140 -333,-155 -473,-34 -21,19 -39,40 -55,63l-161 -186 -38 -780c-6,-135 -118,-240 -251,-240 -5,0 -9,0 -13,0l35 711 -467 -538c-105,91 -116,251 -25,356l511 590 12 246c-29,-6 -56,-8 -83,-7 -185,9 -327,166 -318,351 9,185 166,327 350,318 184,-9 328,-166 319,-351zm349 -342c35,-30 87,-26 117,8 30,35 27,87 -8,117 -35,30 -87,26 -117,-8 -30,-35 -26,-87 8,-117zm-766 362c-3,-45 32,-84 78,-86 2,0 3,0 4,0 44,0 81,34 83,78 2,46 -33,85 -79,87 -1,0 -2,0 -4,0 -44,0 -80,-34 -82,-79z"></path> </g> </g> </svg> 